<?xml version="1.0" encoding="utf-8"?>
<!-- Generator: Adobe Illustrator 16.0.0, SVG Export Plug-In . SVG Version: 6.00 Build 0)  -->
<!DOCTYPE svg PUBLIC "-//W3C//DTD SVG 1.1//EN" "http://www.w3.org/Graphics/SVG/1.1/DTD/svg11.dtd">
<svg version="1.1" xmlns="http://www.w3.org/2000/svg" xmlns:xlink="http://www.w3.org/1999/xlink" x="0px" y="0px"
	 width="436.663px" height="148.875px" viewBox="0 0 436.663 148.875" enable-background="new 0 0 436.663 148.875"
	 xml:space="preserve">
<g id="Layer_1" display="none">
	<rect x="-0.003" display="inline" fill="#2F567D" width="436.667" height="804.571"/>
</g>
<g id="Layer_13" display="none">
</g>
<g id="Cogwheel" display="none">
	<g id="Cog_7_" display="inline">
	</g>
	<g id="Cog_3_" display="inline">
	</g>
	<g id="Cog_1_" display="inline">
	</g>
	<g id="Cog_5_" display="inline">
	</g>
	<g id="Cog_2_" display="inline">
	</g>
	<g id="Cog" display="inline">
	</g>
	<g id="Cog_6_" display="inline">
	</g>
	<g id="Cog_4_" display="inline">
	</g>
</g>
<g id="Layer_14" display="none">
	<g display="inline">
		<g>
			<path fill="#2F567D" d="M105.79,148.93l-0.01,0.01c-0.21,0.07-0.43,0.06-0.65-0.01C105.36,148.99,105.58,149,105.79,148.93z"/>
			<path fill="#FFFFFF" d="M105.79,148.93c-0.101,0.034-0.205,0.049-0.31,0.049c-0.114,0-0.231-0.018-0.35-0.049
				c0.118,0.037,0.235,0.058,0.352,0.058c0.101,0,0.201-0.015,0.299-0.048L105.79,148.93L105.79,148.93z"/>
		</g>
		<g>
			<path fill="#2F567D" d="M118.59,149.47c-0.88-1.3-1.69-2.65-2.44-4.04h0.01C116.92,146.81,117.73,148.16,118.59,149.47z"/>
			<path fill="#FFFFFF" d="M116.16,145.43h-0.01c0.75,1.39,1.56,2.74,2.44,4.04C117.73,148.16,116.92,146.81,116.16,145.43
				L116.16,145.43z"/>
		</g>
		<g>
			<path fill="#2F567D" d="M129.84,161.86c-2.58,2.27-5.33,4.67-8.25,7.23c-0.72,0.63-2.17,0.01-3.58-1.1
				c1.42,1.1,2.86,1.71,3.58,1.08c2.92-2.55,5.66-4.96,8.24-7.22L129.84,161.86z"/>
			<path fill="#FFFFFF" d="M129.83,161.85c-2.58,2.26-5.32,4.67-8.24,7.22c-0.2,0.175-0.455,0.254-0.749,0.254
				c-0.768,0-1.805-0.54-2.831-1.334c1.022,0.805,2.065,1.352,2.836,1.352c0.292,0,0.546-0.079,0.744-0.252
				c2.92-2.56,5.67-4.96,8.25-7.23L129.83,161.85L129.83,161.85z"/>
		</g>
		<g>
			<path fill="#2F567D" d="M138.18,167.45v0.01c-0.46-0.25-0.92-0.51-1.37-0.78C137.26,166.94,137.72,167.2,138.18,167.45z"/>
			<path fill="#FFFFFF" d="M136.81,166.68c0.45,0.27,0.91,0.53,1.37,0.78v-0.01C137.72,167.2,137.26,166.94,136.81,166.68
				L136.81,166.68z"/>
		</g>
		<g>
			<path fill="#2F567D" d="M143.68,181.95c-0.13,0.12-0.3,0.21-0.5,0.27C143.38,182.15,143.55,182.06,143.68,181.95z"/>
			<path fill="#FFFFFF" d="M143.68,181.95c-0.13,0.11-0.3,0.2-0.5,0.27C143.38,182.16,143.55,182.07,143.68,181.95L143.68,181.95z"
				/>
		</g>
		<g>
			<path fill="#2F567D" d="M149.94,172.18c-0.4-0.1-0.8-0.21-1.19-0.33v-0.01C149.15,171.96,149.54,172.07,149.94,172.18z"/>
			<path fill="#FFFFFF" d="M148.75,171.84v0.01c0.39,0.12,0.79,0.23,1.19,0.33C149.54,172.07,149.15,171.96,148.75,171.84
				L148.75,171.84z"/>
		</g>
		<g>
			<path fill="#2F567D" d="M155,173.31v0.01c-0.47-0.08-0.94-0.17-1.4-0.27C154.06,173.14,154.53,173.23,155,173.31z"/>
			<path fill="#FFFFFF" d="M153.6,173.05c0.46,0.1,0.93,0.19,1.4,0.27v-0.01C154.53,173.23,154.06,173.14,153.6,173.05L153.6,173.05
				z"/>
		</g>
		<g>
			<path fill="#2F567D" d="M164.327,186.078c-2.723,0-4.454-0.727-4.498-1.4c-0.25-3.86-0.49-7.481-0.72-10.901l-0.028-0.419
				l-0.418-0.044c-1.15-0.123-2.322-0.285-3.58-0.496c-0.464-0.079-0.931-0.168-1.387-0.258l-1.219-0.257l-1.208-0.288
				c-0.306-0.076-0.614-0.16-0.928-0.244l-0.271-0.073c-0.393-0.108-0.779-0.217-1.175-0.336l-0.644-0.193v0.565
				c-1.505,3.04-3.098,6.265-4.789,9.696c-0.011,0.021-0.031,0.053-0.053,0.08c-0.13,0.126-0.249,0.188-0.395,0.24
				c-0.192,0.059-0.453,0.091-0.754,0.091c-0.858,0-1.958-0.244-3.1-0.686c-0.172-0.061-0.321-0.126-0.469-0.191
				c-0.185-0.067-0.327-0.129-0.468-0.2c-0.177-0.089-0.334-0.167-0.482-0.236c-0.136-0.068-0.275-0.143-0.414-0.226l-0.539-0.321
				c-0.5-0.33-0.895-0.647-1.175-0.944c-0.386-0.409-0.557-0.794-0.469-1.059l3.536-10.435v-0.38l-0.261-0.152
				c-0.456-0.248-0.913-0.506-1.359-0.764c-1.332-0.768-2.654-1.617-3.931-2.525c-0.987-0.69-1.987-1.446-2.974-2.25l-0.331-0.331
				l-0.324,0.333l-2.799,2.454c-1.742,1.528-3.554,3.117-5.44,4.765c-0.101,0.088-0.238,0.131-0.42,0.131
				c-0.596,0-1.516-0.448-2.524-1.229l-0.159-0.128c-0.109-0.087-0.218-0.175-0.326-0.271c-0.172-0.142-0.33-0.281-0.479-0.429
				c-0.273-0.245-0.516-0.494-0.742-0.76c-0.186-0.21-0.325-0.368-0.457-0.526c-0.07-0.079-0.122-0.144-0.166-0.217
				c-0.17-0.225-0.297-0.4-0.423-0.575c-0.717-1.062-0.982-1.989-0.669-2.35c2.549-2.918,4.959-5.658,7.229-8.238l0.279-0.317
				l-0.267-0.329c-0.836-1.027-1.592-2.029-2.246-2.978c-0.302-0.423-0.6-0.859-0.887-1.286c-0.835-1.271-1.646-2.62-2.406-4.001
				l-0.143-0.259h-0.377l-0.088,0.026c-1.221,0.41-2.473,0.831-3.745,1.272c-0.424,0.137-0.857,0.279-1.291,0.43
				c-1.717,0.589-3.495,1.188-5.324,1.798c-0.046,0.015-0.096,0.023-0.152,0.023c-0.066,0-0.141-0.011-0.224-0.033
				c-0.07-0.024-0.155-0.062-0.235-0.108c-0.1-0.058-0.198-0.133-0.297-0.207c-0.104-0.086-0.212-0.196-0.321-0.304
				c-0.112-0.112-0.215-0.233-0.311-0.363c0,0-0.277-0.366-0.345-0.462c-0.106-0.152-0.206-0.313-0.295-0.484
				c-0.123-0.203-0.219-0.376-0.325-0.569c-1.083-2.055-1.626-4.45-1.233-5.445c0.022-0.058,0.035-0.082,0.051-0.106l0.035-0.035
				l0.084-0.135l0.115-0.079c3.47-1.71,6.73-3.321,9.801-4.841l0.278-0.138v-0.384l-0.021-0.081
				c-0.731-2.435-1.285-4.93-1.645-7.418l-0.17-1.184l-0.172-1.614H109.8c-3.397-0.219-7.017-0.459-10.876-0.719
				c-0.674-0.043-1.403-1.764-1.409-4.47c-0.005-2.74,0.727-4.485,1.409-4.532c3.859-0.26,7.489-0.5,10.898-0.72l0.42-0.027
				l0.044-0.419c0.354-3.331,1.011-6.618,1.952-9.77l0.121-0.405l-10.179-5.026c-0.464-0.229-0.546-1.309-0.209-2.749
				c0.637-2.718,2.439-5.594,3.508-5.594c0.053,0,0.102,0.008,0.151,0.024l2.654,0.897c2.692,0.911,5.262,1.78,7.717,2.603
				l0.397,0.133l0.201-0.368c1.596-2.924,3.459-5.701,5.539-8.254l0.268-0.329l-0.28-0.317c-2.27-2.58-4.679-5.319-7.229-8.239
				c-0.211-0.241-0.162-0.753,0.134-1.406c1.012-2.235,4.27-5.089,5.81-5.089c0.183,0,0.32,0.042,0.42,0.13
				c1.888,1.648,3.7,3.237,5.442,4.766l3.117,2.732l0.328-0.267c2.568-2.092,5.352-3.959,8.273-5.549l0.37-0.201l-3.645-10.758
				c-0.068-0.201,0.009-0.458,0.228-0.764c1.04-1.448,4.708-3.1,6.886-3.1c0.373,0,1.026,0.054,1.205,0.416
				c1.72,3.47,3.33,6.729,4.839,9.799l0.187,0.38l0.405-0.122c3.136-0.94,6.422-1.597,9.769-1.952l0.418-0.044l0.028-0.419
				c0.23-3.42,0.47-7.041,0.72-10.901c0.043-0.673,1.775-1.4,4.498-1.4c2.723,0,4.458,0.728,4.504,1.402l0.759,11.33l0.419,0.043
				c3.278,0.338,6.565,0.991,9.769,1.942l0.405,0.12l5.025-10.179c0.178-0.361,0.829-0.415,1.201-0.415
				c2.18,0,5.85,1.652,6.89,3.101c0.219,0.305,0.295,0.561,0.228,0.763l-0.897,2.654c-0.91,2.692-1.779,5.262-2.603,7.717
				l-0.134,0.397l0.368,0.201c2.924,1.596,5.701,3.459,8.254,5.539l0.327,0.267l3.127-2.741c1.739-1.525,3.548-3.112,5.431-4.756
				c0.101-0.089,0.238-0.131,0.422-0.131c1.536,0,4.792,2.847,5.805,5.078c0.3,0.658,0.35,1.175,0.137,1.418l-7.487,8.568
				l0.267,0.327c2.079,2.551,3.942,5.328,5.54,8.254l0.201,0.369l10.757-3.645c0.048-0.016,0.098-0.024,0.15-0.024
				c1.068,0,2.871,2.875,3.508,5.594c0.337,1.439,0.255,2.519-0.21,2.749l-10.177,5.037l0.119,0.403
				c0.955,3.223,1.605,6.505,1.933,9.757l0.042,0.422l0.423,0.027c3.42,0.22,7.049,0.46,10.909,0.72
				c0.681,0.046,1.413,1.792,1.408,4.532c-0.005,2.706-0.734,4.427-1.407,4.47l-11.315,0.759l-0.051,0.423
				c-0.039,0.416-0.089,0.831-0.138,1.237c-0.109,0.837-0.228,1.669-0.377,2.491c-0.215,1.214-0.475,2.438-0.772,3.639
				c-0.1,0.408-0.208,0.813-0.317,1.22l-0.026,0.093c-0.101,0.354-0.2,0.707-0.309,1.06l-0.022,0.072v0.386l0.278,0.158
				c3.07,1.52,6.33,3.13,9.801,4.841l0.115,0.078l0.015,0.03l0.104,0.14c0.016,0.024,0.03,0.049,0.049,0.1
				c0.583,1.454-0.829,5.564-2.515,7.338c-0.105,0.104-0.212,0.211-0.318,0.3c-0.097,0.072-0.192,0.146-0.29,0.202
				c-0.08,0.046-0.165,0.084-0.268,0.118c-0.051,0.012-0.126,0.023-0.191,0.023c-0.056,0-0.105-0.008-0.152-0.023l-11.008-3.733
				v0.563c-0.381,0.7-0.779,1.392-1.197,2.074c-0.67,1.104-1.337,2.117-2.039,3.1c-0.761,1.087-1.495,2.059-2.25,2.973l-0.05,0.061
				l-0.249,0.262l0.299,0.345c1.13,1.291,2.291,2.611,3.501,3.981c1.198,1.377,2.438,2.798,3.719,4.258
				c0.262,0.302,0.125,0.999-0.368,1.863c-0.092,0.157-0.197,0.328-0.312,0.5c-0.089,0.137-0.127,0.197-0.169,0.251l-0.419,0.538
				c-0.135,0.173-0.287,0.354-0.44,0.526c-0.258,0.287-0.538,0.566-0.827,0.837c-0.074,0.074-0.145,0.137-0.208,0.185
				c-0.193,0.176-0.354,0.309-0.505,0.432c-0.259,0.21-0.525,0.4-0.783,0.572c-0.244,0.154-0.489,0.306-0.735,0.428
				c-0.126,0.068-0.236,0.119-0.348,0.162c-0.324,0.124-0.604,0.188-0.83,0.188c-0.185,0-0.321-0.042-0.42-0.127
				c-1.883-1.645-8.24-7.22-8.24-7.22l-0.317-0.278l-0.327,0.267c-2.525,2.057-5.271,3.903-8.161,5.488h-0.061l-0.01,0.01h-0.5
				l3.733,11.02c0.046,0.133,0.029,0.289-0.049,0.479c-0.434,0.955-2.393,2.207-4.55,2.896c-0.562,0.183-1.031,0.305-1.439,0.373
				c-0.396,0.071-0.751,0.106-1.064,0.106c-0.373,0-1.025-0.054-1.207-0.417c0,0-0.986-1.988-1.227-2.465l-0.71-1.446
				c-0.578-1.173-1.145-2.321-1.706-3.444l-0.046-0.103l-1.337-2.718l-0.404,0.121c-0.366,0.109-0.732,0.218-1.098,0.317
				l-0.099,0.029c-1.716,0.458-3.4,0.828-5.005,1.1c-1.1,0.194-2.266,0.356-3.569,0.496l-0.417,0.045l-0.759,11.329
				C168.785,185.35,167.05,186.078,164.327,186.078z M164.33,78.69c-22.376,0-40.58,18.204-40.58,40.58s18.204,40.58,40.58,40.58
				s40.58-18.204,40.58-40.58S186.706,78.69,164.33,78.69z"/>
			<path fill="#FFFFFF" d="M164.326,52.962c2.562,0,3.905,0.677,4.006,0.935l0.352,5.256l0.379,5.654l0.057,0.841l0.839,0.086
				c3.247,0.335,6.503,0.982,9.678,1.924l0.809,0.24l0.373-0.757c0.813-1.653,1.657-3.361,2.531-5.128
				c0.749-1.514,1.519-3.07,2.303-4.663c0.035-0.038,0.251-0.144,0.758-0.144c1.842,0,4.993,1.318,6.245,2.612
				c0.328,0.339,0.397,0.553,0.398,0.591l-0.896,2.647c-0.911,2.695-1.781,5.267-2.605,7.725l-0.267,0.794l0.736,0.401
				c2.897,1.581,5.648,3.427,8.177,5.487l0.655,0.534l0.636-0.557l2.812-2.465c1.737-1.524,3.545-3.11,5.421-4.75
				c0.008-0.003,0.04-0.012,0.1-0.012c1.044,0,3.586,1.915,4.955,4.067c0.649,1.021,0.643,1.527,0.61,1.6l-3.262,3.731
				c-1.364,1.561-2.683,3.067-3.949,4.52l-0.554,0.635l0.532,0.654c2.06,2.527,3.906,5.278,5.488,8.177l0.402,0.738l0.796-0.27
				l4.142-1.404c1.999-0.678,4.068-1.38,6.208-2.104c0.381,0,1.572,1.216,2.492,3.542c0.903,2.286,0.779,3.667,0.583,3.854
				c-2.148,1.065-4.218,2.088-6.21,3.074l-3.589,1.776l-0.755,0.373l0.239,0.807c0.946,3.192,1.59,6.444,1.914,9.666l0.085,0.843
				l0.846,0.055c3.419,0.22,7.048,0.459,10.898,0.718c0.269,0.099,0.945,1.427,0.951,3.979c0.006,2.581-0.676,3.928-0.942,4.027
				l-5.818,0.39L218.847,124h-0.886l-0.086,0.905c-0.04,0.411-0.089,0.822-0.137,1.216c-0.13,1.002-0.244,1.764-0.373,2.475
				c-0.213,1.201-0.471,2.414-0.767,3.606c-0.099,0.403-0.206,0.806-0.311,1.196l-0.028,0.098c-0.099,0.35-0.197,0.7-0.306,1.049
				l-0.044,0.164v0.151v0.621l0.557,0.275c3.067,1.519,6.323,3.127,9.775,4.828l0.004,0.006l0.016,0.016l0.013,0.03l0.038,0.056
				c0.462,1.155-0.775,5.071-2.407,6.789c-0.096,0.095-0.19,0.191-0.265,0.254c-0.081,0.061-0.161,0.124-0.243,0.171
				c-0.041,0.024-0.086,0.045-0.141,0.064c-0.036,0.008-0.057,0.01-0.057,0.013c-2.063-0.697-4.05-1.372-5.972-2.025l-4.378-1.485
				l-1.32-0.447v1.132c-0.359,0.657-0.737,1.309-1.125,1.943c-0.663,1.091-1.323,2.095-2.024,3.076
				c-0.75,1.072-1.477,2.032-2.223,2.936l-0.038,0.046l-0.554,0.583l0.602,0.687c1.131,1.291,2.291,2.612,3.497,3.978
				c1.201,1.381,2.442,2.802,3.716,4.254c0.031,0.063,0.052,0.469-0.413,1.284c-0.091,0.154-0.19,0.317-0.301,0.483l-0.056,0.084
				c-0.029,0.045-0.059,0.093-0.089,0.133l-0.175,0.225l-0.248,0.318c-0.127,0.164-0.272,0.335-0.414,0.495
				c-0.233,0.26-0.494,0.524-0.82,0.829c-0.047,0.046-0.099,0.094-0.145,0.129l-0.044,0.033l-0.04,0.037
				c-0.143,0.133-0.294,0.258-0.439,0.375c-0.214,0.175-0.457,0.352-0.721,0.529c-0.232,0.146-0.479,0.299-0.733,0.426
				c-0.091,0.05-0.183,0.092-0.271,0.125c-0.353,0.135-0.561,0.155-0.653,0.155c-0.057,0-0.087-0.007-0.093-0.007h-0.001
				c-1.881-1.643-3.688-3.228-5.425-4.751l-2.812-2.465l-0.636-0.557l-0.655,0.534c-2.471,2.013-5.154,3.822-7.979,5.379
				l-0.143,0.001l-0.005,0.005h-0.985l0.447,1.32l1.472,4.344c0.657,1.937,1.336,3.939,2.037,6.01
				c0.001,0.011-0.004,0.056-0.022,0.103c-0.328,0.721-2.047,1.936-4.26,2.643c-0.534,0.174-0.98,0.291-1.375,0.356
				c-0.36,0.064-0.688,0.097-0.971,0.097c-0.515,0-0.729-0.109-0.76-0.14l-0.5-1.007c-0.223-0.449-0.443-0.896-0.664-1.334v-0.005
				l-0.104-0.209l-0.665-1.349c-0.561-1.135-1.108-2.247-1.651-3.334v-0.008l-0.104-0.209l-0.627-1.275l-0.523-1.064l-0.373-0.757
				l-0.81,0.241c-0.361,0.108-0.724,0.216-1.13,0.327l-0.051,0.015h-0.001c-1.701,0.454-3.37,0.821-4.966,1.091
				c-1.085,0.191-2.24,0.352-3.532,0.491l-0.835,0.089l-0.057,0.837l-0.379,5.654l-0.35,5.245c-0.103,0.27-1.446,0.946-4.008,0.946
				c-2.554,0-3.896-0.675-3.998-0.932c-0.25-3.861-0.49-7.482-0.721-10.902l-0.056-0.838l-0.835-0.089
				c-1.141-0.121-2.302-0.282-3.548-0.491c-0.461-0.079-0.923-0.167-1.354-0.251c-0.208-0.045-0.417-0.089-0.626-0.132
				c-0.201-0.042-0.402-0.083-0.581-0.123c-0.208-0.051-0.414-0.099-0.619-0.147c-0.2-0.047-0.399-0.094-0.596-0.142
				c-0.306-0.077-0.612-0.159-0.922-0.243l-0.264-0.071c-0.393-0.108-0.776-0.216-1.168-0.334l-1.288-0.377v1.111
				c-1.488,3.006-3.063,6.194-4.728,9.572c-0.006,0.006-0.012,0.013-0.018,0.02c-0.024,0.015-0.063,0.037-0.117,0.056
				c-0.113,0.035-0.314,0.076-0.627,0.076c-0.786,0-1.85-0.238-2.947-0.663c-0.146-0.051-0.283-0.112-0.42-0.172l-0.035-0.015
				l-0.035-0.013c-0.131-0.046-0.253-0.1-0.398-0.172c-0.161-0.081-0.322-0.161-0.448-0.219c-0.137-0.068-0.265-0.136-0.395-0.214
				l-0.175-0.104c-0.082-0.048-0.16-0.094-0.235-0.14l-0.1-0.059c-0.472-0.311-0.841-0.605-1.097-0.876
				c-0.299-0.316-0.359-0.521-0.36-0.553c0.729-2.156,1.433-4.232,2.113-6.237l1.397-4.123l0.053-0.166v-0.165v-0.595l-0.522-0.284
				c-0.453-0.246-0.905-0.502-1.348-0.758c-1.317-0.76-2.626-1.601-3.897-2.504c-0.961-0.671-1.937-1.409-2.902-2.194l-0.635-0.635
				l-0.704,0.617l-2.801,2.457c-1.741,1.527-3.552,3.116-5.431,4.758c-0.007,0.003-0.039,0.012-0.098,0.012
				c-0.371,0-1.148-0.295-2.195-1.106l-0.175-0.141c-0.103-0.083-0.206-0.165-0.336-0.279c-0.146-0.12-0.292-0.249-0.429-0.385
				l-0.02-0.02l-0.02-0.018c-0.236-0.211-0.463-0.444-0.687-0.706l-0.048-0.054c-0.129-0.146-0.266-0.3-0.416-0.48
				c-0.037-0.042-0.071-0.082-0.099-0.129l-0.031-0.052l-0.037-0.047c-0.133-0.17-0.255-0.341-0.36-0.486
				c-0.746-1.105-0.75-1.678-0.716-1.753c2.55-2.919,4.958-5.658,7.228-8.237l0.559-0.636l-0.535-0.656
				c-0.828-1.017-1.575-2.008-2.231-2.96c-0.295-0.413-0.59-0.846-0.868-1.257c-0.831-1.266-1.635-2.603-2.39-3.974l-0.295-0.518
				h-0.591h-0.164l-0.155,0.052c-1.223,0.411-2.476,0.832-3.73,1.267c-0.437,0.142-0.874,0.284-1.306,0.435
				c-1.717,0.589-3.495,1.188-5.315,1.795c-0.009,0-0.03-0.001-0.067-0.009c-0.054-0.02-0.099-0.041-0.141-0.064
				c-0.077-0.044-0.152-0.102-0.24-0.168c-0.092-0.079-0.184-0.172-0.275-0.264c-0.095-0.095-0.18-0.195-0.261-0.305l-0.147-0.196
				c-0.063-0.083-0.128-0.168-0.191-0.258c-0.096-0.136-0.184-0.28-0.262-0.429l-0.016-0.03l-0.018-0.028
				c-0.103-0.167-0.194-0.334-0.288-0.504c-1.096-2.079-1.513-4.282-1.212-5.049l0.036-0.053l0.005-0.01l0.024-0.024l0.002-0.004
				c3.461-1.705,6.712-3.311,9.775-4.828l0.556-0.285v-0.621v-0.147l-0.042-0.141c-0.724-2.411-1.272-4.883-1.629-7.351
				c-0.027-0.182-0.052-0.361-0.077-0.54c-0.029-0.207-0.058-0.412-0.089-0.617c-0.021-0.203-0.043-0.406-0.066-0.607
				c-0.021-0.188-0.042-0.374-0.061-0.558l-0.102-0.899h-0.872c-3.41-0.22-7.018-0.459-10.859-0.716
				c-0.272-0.101-0.954-1.448-0.948-4.029c0.005-2.552,0.683-3.88,0.942-3.978c3.859-0.26,7.488-0.5,10.897-0.72l0.841-0.054
				l0.089-0.838c0.35-3.3,1.001-6.557,1.934-9.679l0.242-0.81l-0.759-0.374c-1.653-0.813-3.361-1.658-5.127-2.531
				c-1.514-0.749-3.071-1.519-4.662-2.302c-0.204-0.191-0.329-1.575,0.577-3.862c0.919-2.323,2.11-3.539,2.481-3.541l2.647,0.895
				c2.695,0.912,5.267,1.782,7.725,2.606l0.794,0.266l0.401-0.735c1.581-2.897,3.427-5.648,5.487-8.178l0.535-0.656l-0.559-0.636
				c-2.27-2.579-4.678-5.318-7.224-8.23c-0.037-0.082-0.039-0.604,0.636-1.648c1.375-2.13,3.901-4.025,4.926-4.025
				c0.058,0,0.089,0.008,0.092,0.008l0,0c1.886,1.646,3.697,3.235,5.438,4.762l2.801,2.457l0.635,0.557l0.655-0.534
				c2.544-2.073,5.302-3.922,8.196-5.497l0.739-0.402l-0.27-0.797l-1.397-4.123c-0.68-2.005-1.384-4.081-2.111-6.227
				c-0.001-0.048,0.067-0.262,0.395-0.601c1.25-1.294,4.401-2.612,6.243-2.612c0.511,0,0.728,0.108,0.757,0.137
				c1.719,3.469,3.329,6.729,4.838,9.798l0.374,0.76l0.811-0.243c3.106-0.931,6.362-1.582,9.678-1.934l0.836-0.089l0.056-0.839
				c0.23-3.42,0.471-7.042,0.718-10.892C160.43,53.637,161.772,52.962,164.326,52.962 M164.33,160.35
				c22.651,0,41.08-18.428,41.08-41.08s-18.429-41.08-41.08-41.08c-22.652,0-41.08,18.428-41.08,41.08S141.678,160.35,164.33,160.35
				 M164.326,51.962c-2.458,0-4.916,0.623-4.996,1.868c-0.25,3.86-0.49,7.48-0.72,10.9c-3.39,0.36-6.69,1.02-9.86,1.97
				c-1.51-3.07-3.12-6.33-4.84-9.8c-0.241-0.487-0.853-0.693-1.653-0.693c-2.881,0-8.213,2.669-7.587,4.523
				c1.24,3.67,2.41,7.11,3.51,10.36c-2.96,1.61-5.76,3.49-8.35,5.6c-2.58-2.26-5.32-4.67-8.24-7.22
				c-0.199-0.175-0.455-0.254-0.75-0.254c-2.486,0-7.795,5.644-6.32,7.324c2.55,2.92,4.96,5.66,7.23,8.24
				c-2.11,2.59-3.98,5.38-5.59,8.33c-3.25-1.09-6.7-2.26-10.37-3.5c-0.101-0.034-0.205-0.051-0.311-0.051
				c-2.365,0-5.664,8.229-3.52,9.291c3.47,1.71,6.73,3.33,9.8,4.84c-0.95,3.18-1.61,6.47-1.97,9.86c-3.41,0.22-7.04,0.46-10.9,0.72
				c-2.5,0.17-2.5,9.84,0,10c3.86,0.26,7.48,0.5,10.9,0.72h0.01c0.04,0.39,0.09,0.79,0.13,1.19c0.06,0.39,0.11,0.78,0.17,1.18
				c0.37,2.56,0.93,5.06,1.66,7.49v0.01c-3.07,1.52-6.33,3.13-9.8,4.84c-0.06,0.03-0.12,0.07-0.17,0.11s-0.1,0.08-0.14,0.14
				c-0.05,0.05-0.09,0.11-0.12,0.17c-0.04,0.06-0.07,0.12-0.1,0.2c-0.49,1.24,0.19,3.84,1.26,5.87c0.11,0.2,0.21,0.38,0.32,0.56
				c0.1,0.19,0.21,0.37,0.33,0.54c0.12,0.17,0.24,0.32,0.35,0.47c0.11,0.15,0.23,0.29,0.36,0.42c0.12,0.12,0.24,0.24,0.36,0.34
				c0.12,0.09,0.24,0.18,0.36,0.25s0.24,0.12,0.36,0.16c0.119,0.031,0.236,0.049,0.35,0.049c0.105,0,0.209-0.015,0.31-0.049
				c1.83-0.61,3.61-1.21,5.33-1.8c0.43-0.15,0.86-0.29,1.29-0.43c1.27-0.44,2.52-0.86,3.74-1.27h0.01c0.76,1.38,1.57,2.73,2.43,4.04
				c0.29,0.43,0.59,0.87,0.89,1.29c0.71,1.03,1.48,2.04,2.27,3.01c-2.27,2.58-4.68,5.32-7.23,8.24c-0.54,0.62-0.17,1.77,0.64,2.97
				c0.13,0.18,0.26,0.36,0.4,0.54c0.06,0.1,0.13,0.19,0.21,0.28c0.15,0.18,0.31,0.36,0.46,0.53c0.23,0.27,0.49,0.54,0.77,0.79
				c0.16,0.16,0.33,0.31,0.5,0.45c0.17,0.15,0.34,0.28,0.51,0.42c1.026,0.794,2.063,1.334,2.831,1.334
				c0.294,0,0.549-0.08,0.749-0.254c2.92-2.55,5.66-4.96,8.24-7.22l0.01,0.01c0.97,0.79,1.97,1.55,3,2.27
				c1.28,0.91,2.6,1.76,3.97,2.55c0.45,0.26,0.91,0.52,1.37,0.77v0.01c-1.1,3.25-2.27,6.69-3.51,10.36
				c-0.16,0.48,0.08,1.03,0.58,1.56c0.35,0.37,0.83,0.74,1.39,1.1h0.01c0.13,0.08,0.27,0.16,0.42,0.25c0.15,0.09,0.3,0.17,0.46,0.25
				c0.15,0.07,0.31,0.15,0.47,0.23s0.32,0.15,0.49,0.21c0.16,0.07,0.32,0.14,0.49,0.2c1.16,0.45,2.34,0.72,3.28,0.72
				c0.35,0,0.66-0.04,0.92-0.12c0.2-0.07,0.37-0.16,0.5-0.27c0.04-0.04,0.08-0.09,0.12-0.13c0.04-0.05,0.08-0.11,0.11-0.17
				c1.71-3.47,3.32-6.73,4.84-9.8v-0.01c0.4,0.12,0.79,0.23,1.19,0.34c0.41,0.11,0.81,0.22,1.21,0.32c0.41,0.1,0.81,0.19,1.22,0.29
				c0.41,0.09,0.82,0.17,1.23,0.26c0.46,0.09,0.93,0.18,1.4,0.26c1.19,0.2,2.39,0.37,3.61,0.5c0.23,3.42,0.47,7.04,0.72,10.9
				c0.08,1.245,2.538,1.868,4.996,1.868c2.459,0,4.919-0.623,5.004-1.868c0.26-3.86,0.5-7.5,0.73-10.91
				c1.21-0.13,2.409-0.29,3.6-0.5c1.71-0.29,3.4-0.67,5.05-1.11c0.04-0.01,0.07-0.02,0.101-0.03c0.369-0.1,0.739-0.21,1.109-0.32
				c0.38,0.77,0.76,1.55,1.15,2.34v0.01c0.79,1.58,1.59,3.21,2.42,4.89v0.01c0.42,0.83,0.84,1.69,1.27,2.55
				c0.244,0.486,0.854,0.693,1.654,0.693c0.351,0,0.738-0.04,1.146-0.113c0.479-0.08,0.989-0.22,1.51-0.39
				c2.13-0.68,4.319-1.99,4.859-3.18c0.12-0.29,0.15-0.57,0.061-0.83c-1.24-3.67-2.41-7.11-3.51-10.36c0.01,0,0.01-0.01,0.02-0.01
				v-0.01c2.95-1.61,5.74-3.48,8.33-5.59c2.58,2.26,5.32,4.67,8.24,7.22c0.198,0.174,0.453,0.251,0.749,0.251
				c0.3,0,0.643-0.08,1.011-0.221c0.13-0.05,0.26-0.11,0.39-0.18c0.261-0.13,0.521-0.29,0.79-0.46c0.271-0.18,0.551-0.38,0.82-0.6
				c0.16-0.13,0.33-0.27,0.49-0.42c0.08-0.06,0.17-0.14,0.25-0.22c0.3-0.28,0.59-0.57,0.859-0.87c0.16-0.18,0.32-0.37,0.46-0.55
				c0.141-0.18,0.28-0.36,0.421-0.54c0.069-0.09,0.13-0.19,0.189-0.28c0.12-0.18,0.23-0.36,0.33-0.53c0.57-1,0.77-1.91,0.31-2.44
				c-1.279-1.46-2.52-2.88-3.72-4.26c-1.21-1.37-2.37-2.69-3.5-3.98c0.01-0.01,0.01-0.01,0.01-0.02c0.801-0.97,1.551-1.97,2.271-3
				c0.729-1.02,1.41-2.06,2.06-3.13c0.44-0.72,0.86-1.45,1.261-2.19c0.01,0,0.01-0.01,0.01-0.01c3.25,1.1,6.68,2.27,10.35,3.51
				c0.101,0.034,0.204,0.049,0.311,0.049c0.114,0,0.23-0.018,0.35-0.049c0.12-0.04,0.24-0.09,0.36-0.16s0.239-0.16,0.359-0.25
				c0.12-0.1,0.24-0.22,0.36-0.34c1.72-1.81,3.31-6.14,2.62-7.86c-0.03-0.08-0.061-0.14-0.101-0.2
				c-0.029-0.06-0.069-0.12-0.119-0.17c-0.021-0.03-0.04-0.05-0.07-0.08c-0.021-0.02-0.04-0.04-0.07-0.06
				c-0.05-0.04-0.109-0.08-0.17-0.11c-3.47-1.71-6.729-3.32-9.8-4.84c0-0.01,0-0.01,0-0.02c0.12-0.39,0.229-0.78,0.34-1.17
				c0.11-0.41,0.22-0.82,0.32-1.23c0.3-1.21,0.56-2.43,0.779-3.67c0.15-0.83,0.271-1.67,0.381-2.52c0.05-0.41,0.1-0.83,0.14-1.25
				h0.01c3.41-0.23,7.04-0.47,10.891-0.73c2.5-0.16,2.5-9.83,0-10c-3.86-0.26-7.49-0.5-10.91-0.72c-0.34-3.38-1.011-6.68-1.95-9.85
				c3.07-1.52,6.33-3.13,9.8-4.85c2.145-1.063-1.154-9.291-3.52-9.291c-0.105,0-0.209,0.017-0.311,0.051
				c-3.67,1.24-7.109,2.41-10.359,3.51c-1.61-2.95-3.48-5.74-5.591-8.33c2.25-2.58,4.66-5.33,7.21-8.25
				c1.475-1.689-3.832-7.324-6.318-7.325c-0.296,0-0.551,0.08-0.751,0.255c-2.92,2.55-5.66,4.96-8.24,7.22
				c-2.59-2.11-5.38-3.98-8.33-5.59c1.09-3.25,2.26-6.7,3.5-10.37c0.626-1.854-4.712-4.523-7.591-4.523
				c-0.8,0-1.41,0.206-1.649,0.693c-1.71,3.47-3.33,6.73-4.84,9.8c-3.17-0.94-6.47-1.61-9.859-1.96
				c-0.23-3.41-0.471-7.05-0.73-10.91C169.245,52.585,166.785,51.962,164.326,51.962L164.326,51.962z M164.33,159.35
				c-22.14,0-40.08-17.94-40.08-40.08s17.94-40.08,40.08-40.08c22.14,0,40.08,17.94,40.08,40.08S186.47,159.35,164.33,159.35
				L164.33,159.35z"/>
		</g>
		<g>
			<path fill="#2F567D" d="M178.71,172.19c-1.649,0.46-3.33,0.83-5.05,1.13v-0.02C175.37,173.01,177.061,172.63,178.71,172.19z"/>
			<path fill="#FFFFFF" d="M178.71,172.19c-1.649,0.44-3.34,0.82-5.05,1.11v0.02C175.38,173.02,177.061,172.65,178.71,172.19
				L178.71,172.19z"/>
		</g>
		<g>
			<path fill="#2F567D" d="M181.07,174.18c-0.4-0.79-0.78-1.57-1.16-2.33c-0.36,0.11-0.73,0.21-1.1,0.31
				c0.369-0.1,0.739-0.21,1.109-0.32C180.3,172.61,180.68,173.39,181.07,174.18z"/>
			<path fill="#FFFFFF" d="M179.92,171.84c-0.37,0.11-0.74,0.22-1.109,0.32c0.369-0.1,0.739-0.2,1.1-0.31
				c0.38,0.76,0.76,1.54,1.16,2.33C180.68,173.39,180.3,172.61,179.92,171.84L179.92,171.84z"/>
		</g>
		<g>
			<path fill="#2F567D" d="M183.49,179.08c-0.84-1.68-1.641-3.31-2.42-4.89C181.86,175.77,182.66,177.4,183.49,179.08z"/>
			<path fill="#FFFFFF" d="M181.07,174.19c0.779,1.58,1.58,3.21,2.42,4.89C182.66,177.4,181.86,175.77,181.07,174.19L181.07,174.19z
				"/>
		</g>
		<g>
			<path fill="#2F567D" d="M187.561,182.22c-1.341,0.25-2.461,0.13-2.811-0.57c-0.43-0.87-0.85-1.72-1.26-2.56
				c0.42,0.83,0.84,1.69,1.27,2.55C185.11,182.34,186.22,182.46,187.561,182.22z"/>
			<path fill="#FFFFFF" d="M183.49,179.09c0.41,0.84,0.83,1.69,1.26,2.56c0.241,0.483,0.849,0.69,1.643,0.69
				c0.356,0,0.752-0.042,1.168-0.12c-0.408,0.073-0.796,0.113-1.146,0.113c-0.8,0-1.41-0.207-1.654-0.693
				C184.33,180.78,183.91,179.92,183.49,179.09L183.49,179.09z"/>
		</g>
		<g>
			<path fill="#2F567D" d="M208.83,169.1c-0.73,0.3-1.36,0.34-1.76-0.01c-2.92-2.55-5.67-4.96-8.25-7.22
				c-2.58,2.11-5.37,3.98-8.32,5.58v-0.01c2.95-1.61,5.74-3.48,8.33-5.59c2.58,2.26,5.32,4.67,8.24,7.22
				C207.47,169.42,208.1,169.38,208.83,169.1z"/>
			<path fill="#FFFFFF" d="M198.83,161.85c-2.59,2.11-5.38,3.98-8.33,5.59v0.01c2.95-1.6,5.74-3.47,8.32-5.58
				c2.58,2.26,5.33,4.67,8.25,7.22c0.195,0.171,0.445,0.249,0.735,0.249c0.304,0,0.65-0.085,1.024-0.239
				c-0.368,0.141-0.711,0.221-1.011,0.221c-0.296,0-0.551-0.078-0.749-0.251C204.15,166.52,201.41,164.11,198.83,161.85
				L198.83,161.85z"/>
		</g>
		<g>
			<path fill="#2F567D" d="M209.22,168.92c0.261-0.13,0.521-0.29,0.79-0.46C209.74,168.64,209.48,168.8,209.22,168.92z"/>
			<path fill="#FFFFFF" d="M210.01,168.46c-0.27,0.17-0.529,0.33-0.79,0.46C209.48,168.8,209.74,168.64,210.01,168.46L210.01,168.46
				z"/>
		</g>
		<g>
			<path fill="#2F567D" d="M217.25,133.67c-0.11,0.39-0.22,0.78-0.33,1.17h-0.01C217.03,134.45,217.14,134.06,217.25,133.67z"/>
			<path fill="#FFFFFF" d="M217.25,133.67c-0.11,0.39-0.22,0.78-0.34,1.17h0.01C217.03,134.45,217.14,134.06,217.25,133.67
				L217.25,133.67z"/>
		</g>
		<g>
			<path fill="#2F567D" d="M223.54,148.93c-0.229,0.07-0.45,0.08-0.66,0.01c-3.67-1.24-7.109-2.41-10.359-3.51
				c0.01,0,0.01-0.01,0.01-0.01c3.25,1.1,6.68,2.27,10.35,3.51C223.09,149,223.311,148.99,223.54,148.93z"/>
			<path fill="#FFFFFF" d="M212.53,145.42c0,0,0,0.01-0.01,0.01c3.25,1.1,6.689,2.27,10.359,3.51c0.098,0.033,0.197,0.048,0.3,0.048
				c0.117,0,0.237-0.021,0.36-0.058c-0.119,0.031-0.235,0.049-0.35,0.049c-0.106,0-0.21-0.015-0.311-0.049
				C219.21,147.69,215.78,146.52,212.53,145.42L212.53,145.42z"/>
		</g>
		<g>
			<path fill="#2F567D" d="M218.88,125c-0.04,0.42-0.09,0.83-0.149,1.25c0.05-0.41,0.1-0.83,0.14-1.25H218.88z"/>
			<path fill="#FFFFFF" d="M218.88,125h-0.01c-0.04,0.42-0.09,0.84-0.14,1.25C218.79,125.83,218.84,125.42,218.88,125L218.88,125z"
				/>
		</g>
	</g>
</g>
<g id="Cannon">
	<g>
		<path fill="#2F567D" d="M141.808,148.375c-36.661,0-62.579-3.073-77.034-9.135C24.367,122.277,2.67,40.941,0.641,33h13.036
			c1.783,3.934,20.938,45.552,43.663,69.52v0.01l0.138,0.145c10.787,11.344,20.828,17.095,29.843,17.095h57.718l-0.237-0.667
			c-0.053-0.15-5.272-15.095-0.118-20.25c3.245-3.245,11.498-5.425,20.535-5.425c8.862,0,16.036,2.064,18.723,5.386
			c4.615,5.703-0.039,20.155-0.087,20.3l-0.214,0.655l48.51,0.021V64.137l45.35,11.086v64.036
			c-5.099,0.626-53.558,6.46-103.859,8.452c-6.716,0.26-12.816,0.436-18.649,0.54C150.48,148.333,146.044,148.375,141.808,148.375z"
			/>
		<path fill="#FFFFFF" d="M13.355,33.5c2.449,5.367,21.231,45.652,43.485,69.218v0.011l0.275,0.29
			C68,114.466,78.163,120.27,87.32,120.27h57.01h1.416l-0.474-1.334c-1.454-4.099-4.332-15.632-0.235-19.729
			c3.158-3.157,11.268-5.279,20.182-5.279c8.715,0,15.74,1.993,18.334,5.201c4.441,5.487-0.127,19.688-0.173,19.831l-0.429,1.31
			l1.379,0l47.32,0.02l1,0v-1V64.774L277,75.615v63.2c-6.969,0.848-54.297,6.452-103.379,8.396
			c-6.714,0.26-12.811,0.436-18.64,0.539c-4.507,0.083-8.939,0.125-13.174,0.125c-36.594,0-62.447-3.061-76.84-9.096
			c-21.902-9.194-38.123-37.606-47.875-59.822C7.903,58.021,2.583,38.509,1.285,33.5H13.355 M14,32.5H0c0,0,21.58,89.15,64.58,107.2
			c16.409,6.881,45.597,9.175,77.228,9.175c4.358,0,8.769-0.044,13.192-0.125c6.2-0.11,12.45-0.3,18.66-0.54
			C227.21,146.09,278,139.7,278,139.7V74.83L231.65,63.5v55.79l-47.32-0.02c0,0,4.84-14.79,0-20.77
			c-3.07-3.797-10.987-5.572-19.111-5.572c-8.521,0-17.27,1.953-20.889,5.572c-5.44,5.44,0,20.77,0,20.77H87.32
			c-9.84,0-19.99-6.96-29.48-16.94c0,0,0-0.01-0.01-0.02C33.81,77.06,14,32.5,14,32.5L14,32.5z"/>
	</g>
	<g>
		<path fill="#2F567D" d="M185.009,118.771c0.892-2.989,4.13-15.124-0.29-20.585c-2.915-3.605-10.204-5.757-19.5-5.757
			c-9.431,0-17.769,2.245-21.242,5.718c-5.001,5.001-1.342,17.548-0.342,20.624H87.32c-4.171,0-8.585-1.289-13.213-3.85
			c0.72-8.355,3.48-16.417,8.207-23.965C97.068,67.357,129.163,52.11,164.08,52.11c25.549,0,49.978,8.119,67.07,22.285v44.396
			L185.009,118.771z"/>
		<path fill="#FFFFFF" d="M164.08,52.61c25.344,0,49.575,8.021,66.57,22.021v43.659l-44.977-0.019
			c1.085-3.854,3.73-15.09-0.566-20.399c-3.008-3.721-10.443-5.943-19.889-5.943c-9.556,0-18.033,2.302-21.596,5.865
			c-4.891,4.891-1.89,16.509-0.671,20.477H87.32c-4.002,0-8.24-1.215-12.687-3.629c0.756-8.16,3.481-16.037,8.104-23.421
			c7.095-11.349,18.316-20.971,32.448-27.826C129.733,56.339,146.64,52.61,164.08,52.61 M164.08,51.61
			c-36.39,0-67.76,16-82.19,39.08c-4.69,7.49-7.59,15.73-8.3,24.41l-15.75-12.77c9.49,9.98,19.64,16.94,29.48,16.94h57.01
			c0,0-5.44-15.33,0-20.77c3.62-3.62,12.367-5.572,20.889-5.572c8.123,0,16.042,1.775,19.111,5.572c4.84,5.98,0,20.77,0,20.77
			l47.32,0.02V74.16C215.05,60.32,190.93,51.61,164.08,51.61L164.08,51.61z"/>
	</g>
	<g>
		<path fill="#2F567D" d="M58.248,102.018c-1.347-3.114-21.557-50.802-8.471-76.964C49.858,24.929,60.134,8.635,73.404,0.69
			l7.508,13.374c-2.324,1.37-12.92,7.971-15.063,15.631c-0.095,0.493-8.248,45.093,15.362,61.142
			c-4.523,7.35-7.223,15.176-8.034,23.284L58.248,102.018z"/>
		<path fill="#FFFFFF" d="M73.221,1.386l7.017,12.499c-3.006,1.822-12.79,8.235-14.871,15.676l-0.012,0.041l-0.008,0.042
			c-0.021,0.114-2.151,11.541-1.276,24.754c1.137,17.175,6.823,29.795,16.466,36.582c-4.246,7.02-6.851,14.467-7.759,22.176
			l-14.12-11.449c-1.701-3.958-21.263-50.685-8.456-76.385C50.76,24.443,60.571,9.172,73.221,1.386 M73.59,0
			C59.84,8,49.33,24.83,49.33,24.83c-13.51,27.01,7.99,76.31,8.5,77.48c0.01,0.01,0.01,0.02,0.01,0.02l15.75,12.77
			c0.71-8.68,3.61-16.92,8.3-24.41C57.78,74.88,66.33,29.83,66.33,29.83c2.33-8.33,15.26-15.58,15.26-15.58L73.59,0L73.59,0z"/>
	</g>
	<polyline fill="#2F567D" stroke="#FFFFFF" stroke-miterlimit="10" points="293.33,99.09 421.33,99.09 421.33,115.91 293.33,115.91 
			"/>
	<line fill="#2F567D" stroke="#FFFFFF" stroke-miterlimit="10" x1="278" y1="115.91" x2="278" y2="99.09"/>
	<g>
		<rect x="278.497" y="91.189" fill="#2F567D" width="14.333" height="30.478"/>
		<path fill="#FFFFFF" d="M292.33,91.689v29.478h-13.333V91.689H292.33 M293.33,90.689h-15.333v31.478h15.333V90.689L293.33,90.689z
			"/>
	</g>
	<g>
		<rect x="421.83" y="97.5" fill="#2F567D" width="14.333" height="20"/>
		<path fill="#FFFFFF" d="M435.663,98v19H422.33V98H435.663 M436.663,97H421.33v21h15.333V97L436.663,97z"/>
	</g>
</g>
<g id="Tower" display="none">
	<g display="inline">
		<rect x="59.926" y="771.205" fill="#2F567D" width="208.809" height="32.866"/>
		<g>
			<path fill="#FFFFFF" d="M268.234,771.705v31.866H60.426v-31.866H268.234 M269.234,770.705H59.426v33.866h209.809V770.705
				L269.234,770.705z"/>
		</g>
	</g>
	<g display="inline">
		<rect x="85.243" y="746.205" fill="#2F567D" width="158.174" height="24"/>
		<g>
			<path fill="#FFFFFF" d="M242.917,746.705v23H85.743v-23H242.917 M243.917,745.705H84.743v25h159.174V745.705L243.917,745.705z"/>
		</g>
	</g>
	<g display="inline">
		<rect x="114.83" y="233.22" fill="#2F567D" width="99" height="12"/>
		<g>
			<path fill="#FFFFFF" d="M213.33,233.72v11h-98v-11H213.33 M214.33,232.72h-100v13h100V232.72L214.33,232.72z"/>
		</g>
	</g>
	<g display="inline">
		<polygon fill="#2F567D" points="129.968,231.667 134.722,212.309 193.938,212.309 198.692,231.667 		"/>
		<g>
			<path fill="#FFFFFF" d="M193.546,212.809l4.509,18.357h-67.449l4.509-18.357H193.546 M194.33,211.809h-60l-5,20.357h70
				L194.33,211.809L194.33,211.809z"/>
		</g>
	</g>
	<line display="inline" fill="#2F567D" stroke="#FFFFFF" stroke-miterlimit="10" x1="126.92" y1="245.71" x2="126.54" y2="245.7"/>
	<line display="inline" fill="#2F567D" stroke="#FFFFFF" stroke-miterlimit="10" x1="121.78" y1="245.63" x2="121.77" y2="245.71"/>
	<g display="inline">
		<polygon fill="#2F567D" points="214.91,745.71 214.34,745.73 214.34,745.71 		"/>
		<polygon fill="#FFFFFF" points="214.91,745.71 214.34,745.71 214.34,745.73 214.91,745.71 		"/>
	</g>
	<g display="inline">
		<polygon fill="#2F567D" points="104.66,735.71 104.33,745.23 104.33,735.71 		"/>
		<polygon fill="#FFFFFF" points="104.66,735.71 104.33,735.71 104.33,745.23 104.66,735.71 		"/>
	</g>
	<g display="inline">
		<polyline fill="#2F567D" stroke="#FFFFFF" stroke-miterlimit="10" points="104.33,745.23 104.33,735.71 104.66,735.71 		"/>
	</g>
	<g display="inline">
		<line fill="#2F567D" stroke="#FFFFFF" stroke-miterlimit="10" x1="126.54" y1="245.71" x2="126.54" y2="245.7"/>
		<g>
			<path fill="#2F567D" d="M164.83,745.22l-0.5-0.01h-59.5l16.649-476.842l0.45-12.8l0.323-9.357h41.577l0.5,0.01h42.076l17.423,499
				H164.83z M164.33,736.22h50.178l-0.668-19.127L164.33,476.5l-49.5,240.499l-0.678,19.211h49.678L164.33,736.22z M168.94,454.109
				v0.102l41.82,203.22l0.989-0.118l-12.276-351.561L168.94,454.109z M116.911,657.303l0.989,0.118l41.82-203.21v-0.102
				l-30.534-148.368L116.911,657.303z M130.53,267.61l33.8,164.22l33.81-164.259v-0.051l2.534-12.3H164.83l-0.5-0.01h-36.343
				l2.533,12.331L130.53,267.61z"/>
			<path fill="#FFFFFF" d="M163.33,246.71v0.01h1h41.594l0.308,8.875l0.448,12.745v0.038l0.001,0.017l15.631,447.57l0.689,19.789
				l0.312,8.966H165.33v-0.01h-1h-58.981l0.311-8.965l0.69-19.79l15.63-447.59l0.45-12.781l0.306-8.875H163.33 M130.02,267.592v0.02
				l0.021,0.1l33.31,161.84l0.979,4.759l0.979-4.759l33.31-161.83l0.021-0.12v0l2.4-11.68l0.247-1.201h-1.227h-34.73v-0.01h-1H128.6
				h-1.227l0.247,1.201L130.02,267.592 M118.39,657.521l41.81-203.16l0.021-0.109v-0.102v-0.102l-0.021-0.1l-29.68-144.211
				l-1.687-8.196l-0.292,8.363l-12.13,347.38L118.39,657.521 M210.271,657.531l1.979-0.236l-12.13-347.379l-0.292-8.363
				l-1.687,8.196l-29.68,144.21l-0.021,0.109v0.102v0.102l0.021,0.1L210.271,657.531 M113.634,736.71h1.036h48.66v0.01h1h49.66
				h1.035l-0.036-1.035l-0.65-18.609l-0.003-0.084l-0.017-0.082l-49.01-238.13l-0.979-4.76l-0.979,4.76l-49.01,238.119l-0.017,0.082
				l-0.003,0.084l-0.65,18.61L113.634,736.71 M164.33,245.71h-42.56l-0.34,9.84l-0.45,12.78v0.02l-15.63,447.57l-0.69,19.79
				l-0.33,9.521v0.479h60v0.01h60v-0.479L224,735.72l-0.689-19.79L207.68,268.36v-0.02l-0.449-12.78l-0.341-9.84h-42.56V245.71
				L164.33,245.71z M164.33,429.35l-33.31-161.84v-0.02l-2.42-11.78h35.73v0.01h35.73l-2.421,11.78v0.02L164.33,429.35
				L164.33,429.35z M117.41,657.32l12.13-347.38l29.68,144.21v0.01L117.41,657.32L117.41,657.32z M211.25,657.33l-41.81-203.16
				v-0.01l29.68-144.21L211.25,657.33L211.25,657.33z M114.67,735.71l0.65-18.61l49.01-238.119l49.01,238.13l0.65,18.609h-49.66
				v-0.01H114.67L114.67,735.71z"/>
		</g>
	</g>
	<g display="inline">
		<line fill="#2F567D" stroke="#FFFFFF" stroke-miterlimit="10" x1="202.12" y1="245.71" x2="202.12" y2="245.72"/>
	</g>
	<line display="inline" fill="#2F567D" stroke="#FFFFFF" stroke-miterlimit="10" x1="164.33" y1="245.71" x2="164.33" y2="245.63"/>
	<path display="inline" fill="#2F567D" stroke="#FFFFFF" stroke-miterlimit="10" d="M164.33,735.71"/>
	<line display="inline" fill="#2F567D" stroke="#FFFFFF" stroke-miterlimit="10" x1="164.33" y1="745.73" x2="164.33" y2="745.71"/>
	<g display="inline">
		<path fill="#2F567D" d="M155.497,211.309v-97.794c0.002-0.222,0.148-5.485,8.833-5.485c8.686,0,8.832,5.264,8.834,5.487v97.792
			H155.497z"/>
		<g>
			<path fill="#FFFFFF" d="M164.33,108.529c8.147,0,8.33,4.791,8.334,4.985v97.294h-16.667v-97.286
				C156.001,113.32,156.184,108.529,164.33,108.529 M164.33,107.529c-9.333,0-9.333,5.985-9.333,5.985v98.294h18.667v-98.294
				C173.664,113.515,173.664,107.529,164.33,107.529L164.33,107.529z"/>
		</g>
	</g>
</g>
</svg>
