<?xml version="1.0" encoding="utf-8"?>
<!-- Generator: Adobe Illustrator 16.0.0, SVG Export Plug-In . SVG Version: 6.00 Build 0)  -->
<!DOCTYPE svg PUBLIC "-//W3C//DTD SVG 1.1//EN" "http://www.w3.org/Graphics/SVG/1.1/DTD/svg11.dtd">
<svg version="1.1" xmlns="http://www.w3.org/2000/svg" xmlns:xlink="http://www.w3.org/1999/xlink" x="0px" y="0px"
	 width="136.565px" height="31.935px" viewBox="0 0 136.565 31.935" enable-background="new 0 0 136.565 31.935"
	 xml:space="preserve">
<g id="Layer_1" display="none">
	<rect x="-90.246" y="-45.667" display="inline" fill="#2F567D" width="300" height="300"/>
</g>
<g id="Layer_2">
</g>
<g id="Layer_6">
</g>
<g id="Layer_4">
</g>
<g id="Layer_5">
</g>
<g id="Layer_3">
	<g>
		<g>
			<path fill="#2F567D" stroke="#FFFFFF" stroke-miterlimit="10" d="M136.565,14.211c0,5.98-6.723,14.02-13.135,14.02l-71.934-3.189
				c-3.206,0-6.101-1.209-8.202-3.17c-2.102-1.959-3.399-4.67-3.399-7.66s1.297-5.699,3.399-7.661
				c2.101-1.959,4.997-3.17,8.202-3.17l71.934-3.191C129.842,0.188,136.565,8.23,136.565,14.211z"/>
			<path fill="#2F567D" stroke="#FFFFFF" stroke-miterlimit="10" d="M45.64,9.91c0,0-2.596-10.501-17.763-8.499
				c-11.167,2-9.667,8.167-9.667,8.167s9.362-2.726,10.333,0.5C29.515,13.303,23.167,31.744,0,15.244
				c0,0,17.436,29.227,42.71,10.334C42.71,25.578,50.043,20.244,45.64,9.91z"/>
		</g>
		<path fill="#2F567D" stroke="#FFFFFF" stroke-miterlimit="10" d="M112.615,0.599c5.52,1.69,9.11,8.429,9.11,13.608
			s-3.591,11.922-9.11,13.613"/>
	</g>
</g>
</svg>
