<?xml version="1.0" encoding="utf-8"?>
<!-- Generator: Adobe Illustrator 16.0.0, SVG Export Plug-In . SVG Version: 6.00 Build 0)  -->
<!DOCTYPE svg PUBLIC "-//W3C//DTD SVG 1.1//EN" "http://www.w3.org/Graphics/SVG/1.1/DTD/svg11.dtd">
<svg version="1.1" xmlns="http://www.w3.org/2000/svg" xmlns:xlink="http://www.w3.org/1999/xlink" x="0px" y="0px"
	 width="155.01px" height="103.56px" viewBox="0 0 155.01 103.56" enable-background="new 0 0 155.01 103.56" xml:space="preserve">
<g id="Layer_1" display="none">
	<rect x="-83.355" y="-87.017" display="inline" fill="#2F567D" width="300" height="300"/>
</g>
<g id="Layer_2">
</g>
<g id="Layer_6">
</g>
<g id="Layer_4">
</g>
<g id="Layer_5">
</g>
<g id="Layer_3">
	<g>
		<path fill="#2F567D" stroke="#FFFFFF" stroke-miterlimit="10" d="M60.37,96.9c0.99,0.05,1.99,0.07,3,0.07
			c10.34,0,20.07-1.43,28.56-4.021l14.65,0.25c1.71-1.81,2.46-2.96,3-4.26c0.57-1.34,0.92-2.84,1.88-5.359
			c0.06-0.141,0.11-0.29,0.17-0.44c1.69-4.3,2.811-9.01,3.26-13.99c0.15-1.6,0.221-3.229,0.221-4.88c0-0.189,0-0.39-0.011-0.58
			c-0.05-5.23-0.84-10.22-2.26-14.82c-0.49-1.6-1.06-3.15-1.689-4.65c-0.021-0.05-0.04-0.09-0.07-0.14v-0.01
			c-0.71-1.69-1.521-3.31-2.4-4.84v-0.01c-1.779-3.09-3.88-5.87-6.26-8.24c-1.24-1.26-2.56-2.41-3.95-3.42
			c-1.569-1.17-3.229-2.17-4.95-3l-6.72,6.38"/>
		<g>
			<g>
				<path fill="#2F567D" stroke="#FFFFFF" stroke-miterlimit="10" d="M112.84,48.87l5.55-2.04c1.54,5.3,2.49,10.96,2.73,16.88
					l-6.021-0.02c0.011,0.19,0.011,0.391,0.011,0.58c0,1.65-0.07,3.28-0.221,4.88l6.25,0.12c-0.199,5.9-1.12,11.57-2.649,16.87
					l-7.03-2.56c-0.96,2.52-1.31,4.02-1.88,5.359l7.08,2.61l6.2,2.95l9.229,4.39c0.29,2.29,0.4,4.67,0.4,4.67s3.91-0.15,7.88-0.71
					c3.97-0.51,7.96-1.42,7.96-1.42s-0.54-0.87-1.37-2.11c-0.86-1.229-2.01-2.83-3.229-4.37c-2.391-3.109-5.021-5.89-5.021-5.89
					s-1.8,1.46-3.66,2.76c-0.04,0.03-0.069,0.061-0.1,0.07l-10.061-3.51c1.7-5.92,2.721-12.25,2.95-18.851l11.22,0.42
					c1.19,1.881,2.261,3.87,2.261,3.87s3.5-1.58,6.92-3.499c3.45-1.891,6.77-4.111,6.77-4.111s-3.31-2.159-6.72-3.989
					c-3.4-1.87-6.88-3.4-6.88-3.4s-1.11,1.98-2.34,3.82c-0.03,0.04-0.051,0.07-0.07,0.11l-11.16,0.6
					c-0.24-6.61-1.25-12.94-2.939-18.88l9.68-3.54c1.83,1.35,3.58,2.85,3.58,2.85s2.649-2.82,5.07-5.98
					c1.21-1.57,2.369-3.2,3.22-4.46c0.83-1.27,1.39-2.11,1.39-2.11s-3.93-0.8-7.83-1.28c-3.93-0.54-7.79-0.68-7.79-0.68
					s-0.17,2.37-0.54,4.65c-0.01,0.04-0.01,0.08-0.01,0.12l-8.8,4.28c-0.51-1.38-1.061-2.73-1.66-4.05
					c-1.18-2.62-2.49-5.15-3.93-7.53v-0.02c-1.431-2.35-2.971-4.58-4.641-6.66l4.88-5.21c2.341,0.45,4.681,1.12,4.681,1.12
					s1.03-3.81,1.63-7.81c0.64-3.99,0.82-8.16,0.82-8.16s-4.061,0.96-7.86,2.34c-3.84,1.33-7.39,3.07-7.39,3.07s1.05,2.15,1.89,4.34
					c0.01,0.03,0.03,0.07,0.05,0.11l-3.52,4.84l-4.53,6.24l-4.82,6.62c1.391,1.01,2.71,2.16,3.95,3.42l5.08-5.43
					c1.57,1.93,3.02,4,4.34,6.19v0.02c1.271,2.09,2.42,4.31,3.45,6.62c0.45,0.99,0.87,2,1.27,3.02l-5.479,2.67v0.01"/>
			</g>
		</g>
		<path fill="#2F567D" stroke="#FFFFFF" stroke-miterlimit="10" d="M100.22,64.959c0,4.44-0.529,8.7-1.529,12.711
			c-1.4,5.71-3.73,10.89-6.761,15.27v0.01c-8.489,2.591-18.22,4.021-28.56,4.021c-1.01,0-2.01-0.021-3-0.07
			c-6.23-0.24-12.21-1.26-17.84-2.83c-15.86-4.38-28.99-13.05-37.4-20.84C0.27,68.72,0.01,68.48,0,62.11v-1.14
			c0-8.5,0-8.5,5.75-13.24c0.37-0.31,0.75-0.62,1.14-0.92c0.4-0.32,0.81-0.64,1.23-0.95c0.27-0.21,0.55-0.42,0.83-0.62
			c0.26-0.19,0.53-0.39,0.8-0.58c0.41-0.3,0.83-0.59,1.25-0.87c1.34-0.93,2.74-1.82,4.21-2.69c0.34-0.2,0.69-0.41,1.04-0.61
			c0.38-0.22,0.77-0.44,1.17-0.66c1.09-0.6,2.22-1.19,3.38-1.76c0.5-0.25,1-0.49,1.52-0.73c0.02-0.01,0.04-0.02,0.07-0.03
			c0.53-0.26,1.07-0.5,1.62-0.74c0.5-0.22,1-0.44,1.51-0.65c0.25-0.11,0.51-0.21,0.77-0.32c0.7-0.29,1.4-0.57,2.12-0.83
			c0.6-0.23,1.21-0.46,1.82-0.67c0.46-0.17,0.92-0.33,1.39-0.48c0.3-0.11,0.61-0.21,0.91-0.3c0.3-0.1,0.6-0.19,0.91-0.29
			c0.81-0.26,1.64-0.51,2.47-0.74c0.49-0.14,0.98-0.27,1.48-0.4c0.49-0.13,0.99-0.26,1.49-0.38c1-0.25,2.02-0.48,3.05-0.7
			c0.35-0.07,0.71-0.15,1.07-0.22c0.68-0.14,1.36-0.27,2.05-0.39c0.53-0.1,1.06-0.19,1.59-0.27c0.54-0.09,1.07-0.18,1.61-0.25
			l0.01-0.01c1.23-0.18,2.49-0.33,3.75-0.47c0.58-0.06,1.16-0.12,1.74-0.17c0.59-0.05,1.18-0.1,1.77-0.14
			c0.57-0.04,1.15-0.08,1.74-0.11c0.5-0.04,1-0.06,1.51-0.08c0.5-0.02,1.01-0.04,1.52-0.05c0.44-0.02,0.88-0.03,1.32-0.03
			c0.58-0.02,1.17-0.02,1.76-0.02h0.25c0.92,0,1.84,0.01,2.75,0.04c0.74,0.01,1.47,0.04,2.2,0.07c3.08,0.13,6.09,0.37,9.02,0.72
			c0.391,0.04,0.771,0.09,1.15,0.15c0.06,0,0.12,0.01,0.18,0.02c0.47,0.06,0.94,0.12,1.4,0.19c0.02,0,0.029,0,0.04,0.01
			c0.25,0.03,0.489,0.07,0.729,0.11c0.68,0.1,1.351,0.21,2.01,0.32c0.25,0.04,0.5,0.09,0.761,0.14c0.76,0.13,1.51,0.28,2.25,0.43
			c0.239,0.05,0.47,0.1,0.699,0.15C94.95,38.69,100.22,51.04,100.22,64.959z"/>
		<path fill="#2F567D" stroke="#FFFFFF" stroke-miterlimit="10" d="M111.15,44.22c-0.73-1.74-1.561-3.41-2.471-4.99"/>
		<path fill="#2F567D" stroke="#FFFFFF" stroke-miterlimit="10" d="M89.75,37.82c0,9.78-19.92,17.72-44.5,17.72
			c-16.34,0-30.62-3.51-38.36-8.73c0.4-0.32,0.81-0.64,1.23-0.95c0.27-0.21,0.55-0.42,0.83-0.62c0.26-0.19,0.53-0.39,0.8-0.58
			c0.41-0.3,0.83-0.59,1.25-0.87c1.34-0.93,2.74-1.82,4.21-2.69c0.34-0.2,0.69-0.41,1.04-0.61c0.38-0.22,0.77-0.44,1.17-0.66
			c1.09-0.6,2.22-1.19,3.38-1.76c0.5-0.25,1-0.49,1.52-0.73c0.02-0.01,0.04-0.02,0.07-0.03c0.53-0.26,1.07-0.5,1.62-0.74
			c0.5-0.22,1-0.44,1.51-0.65c0.25-0.11,0.51-0.21,0.77-0.32c0.7-0.29,1.4-0.57,2.12-0.83c0.6-0.23,1.21-0.46,1.82-0.67
			c0.46-0.17,0.92-0.33,1.39-0.48c0.3-0.11,0.61-0.21,0.91-0.3c0.3-0.1,0.6-0.19,0.91-0.29c0.81-0.26,1.64-0.51,2.47-0.74
			c0.49-0.14,0.98-0.27,1.48-0.4c0.49-0.13,0.99-0.26,1.49-0.38c1-0.25,2.02-0.48,3.05-0.7c0.35-0.07,0.71-0.15,1.07-0.22
			c0.68-0.14,1.36-0.27,2.05-0.39c0.53-0.1,1.06-0.19,1.59-0.27c0.54-0.09,1.07-0.18,1.61-0.25l0.01-0.01
			c1.23-0.18,2.49-0.33,3.75-0.47c0.58-0.06,1.16-0.12,1.74-0.17c0.59-0.05,1.18-0.1,1.77-0.14c0.57-0.04,1.15-0.08,1.74-0.11
			c0.5-0.04,1-0.06,1.51-0.08c0.5-0.02,1.01-0.04,1.52-0.05c0.44-0.02,0.88-0.03,1.32-0.03c0.58-0.02,1.17-0.02,1.76-0.02h0.25
			c0.92,0,1.84,0.01,2.75,0.04c0.74,0.01,1.47,0.04,2.2,0.07c3.08,0.13,6.09,0.37,9.02,0.72c0.391,0.04,0.771,0.09,1.15,0.15
			c0.06,0,0.12,0.01,0.18,0.02c0.47,0.06,0.94,0.12,1.4,0.19c0.02,0,0.029,0,0.04,0.01c0.25,0.03,0.489,0.07,0.729,0.11
			c0.68,0.1,1.351,0.21,2.01,0.32c0.25,0.04,0.5,0.09,0.761,0.14c0.76,0.13,1.51,0.28,2.25,0.43
			C88.45,32.94,89.75,35.32,89.75,37.82z"/>
		<path fill="none" stroke="#FFFFFF" stroke-miterlimit="10" d="M42.53,94.07c5.63,1.57,11.61,2.59,17.84,2.83
			c0.99,0.05,1.99,0.07,3,0.07c10.34,0,20.07-1.43,28.56-4.021v-0.01c3.03-4.38,5.36-9.56,6.761-15.27
			c1-4.011,1.529-8.271,1.529-12.711c0-13.919-5.27-26.27-13.41-34.009l-0.01-0.01"/>
		<line fill="none" stroke="#FFFFFF" stroke-miterlimit="10" x1="48.26" y1="29.67" x2="48.25" y2="29.68"/>
		<path fill="none" stroke="#FFFFFF" stroke-miterlimit="10" d="M91.93,92.95"/>
		<path fill="none" stroke="#FFFFFF" stroke-miterlimit="10" d="M98.69,77.67c-7.91,2.43-16.681,4.16-25.971,5.04
			c-1.149,0.109-2.279,0.189-3.41,0.25c-7.08,0.43-13.959,0.06-20.5-0.9c-18.39-2.65-34.1-9.87-44.37-16.72
			c-2.09-1.4-3.49-2.33-4.44-3.23v-1.14c0-8.5,0-8.5,5.75-13.24c0.37-0.31,0.75-0.62,1.14-0.92c0.4-0.32,0.81-0.64,1.23-0.95
			c0.27-0.21,0.55-0.42,0.83-0.62c0.26-0.19,0.53-0.39,0.8-0.58c0.41-0.3,0.83-0.59,1.25-0.87c1.34-0.93,2.74-1.82,4.21-2.69
			c0.34-0.2,0.69-0.41,1.04-0.61c0.38-0.22,0.77-0.44,1.17-0.66c1.09-0.6,2.22-1.19,3.38-1.76c0.5-0.25,1-0.49,1.52-0.73
			c0.02-0.01,0.04-0.02,0.07-0.03c0.53-0.26,1.07-0.5,1.62-0.74c0.5-0.22,1-0.44,1.51-0.65c0.25-0.11,0.51-0.21,0.77-0.32
			c0.7-0.29,1.4-0.57,2.12-0.83c0.6-0.23,1.21-0.46,1.82-0.67c0.46-0.17,0.92-0.33,1.39-0.48c0.3-0.11,0.61-0.21,0.91-0.3
			c0.3-0.1,0.6-0.19,0.91-0.29c0.81-0.26,1.64-0.51,2.47-0.74c0.49-0.14,0.98-0.27,1.48-0.4c0.49-0.13,0.99-0.26,1.49-0.38
			c1-0.25,2.02-0.48,3.05-0.7c0.35-0.07,0.71-0.15,1.07-0.22c0.68-0.14,1.36-0.27,2.05-0.39c0.53-0.1,1.06-0.19,1.59-0.27
			c0.54-0.09,1.07-0.18,1.61-0.25l0.01-0.01c1.23-0.18,2.49-0.33,3.75-0.47c0.58-0.06,1.16-0.12,1.74-0.17
			c0.59-0.05,1.18-0.1,1.77-0.14c0.57-0.04,1.15-0.08,1.74-0.11c0.5-0.04,1-0.06,1.51-0.08c0.5-0.02,1.01-0.04,1.52-0.05
			c0.44-0.02,0.88-0.03,1.32-0.03c0.58-0.02,1.17-0.02,1.76-0.02h0.25c0.92,0,1.84,0.01,2.75,0.04c0.74,0.01,1.47,0.04,2.2,0.07
			c3.08,0.13,6.09,0.37,9.02,0.72c0.391,0.04,0.771,0.09,1.15,0.15c0.06,0,0.12,0.01,0.18,0.02c0.47,0.06,0.94,0.12,1.4,0.19
			c0.02,0,0.029,0,0.04,0.01c0.25,0.03,0.489,0.07,0.729,0.11c0.68,0.1,1.351,0.21,2.01,0.32c0.25,0.04,0.5,0.09,0.761,0.14
			c0.76,0.13,1.51,0.28,2.25,0.43c0.239,0.05,0.47,0.1,0.699,0.15l-0.01-0.01l6.72-6.38c1.721,0.83,3.381,1.83,4.95,3
			c1.391,1.01,2.71,2.16,3.95,3.42c2.38,2.37,4.48,5.15,6.26,8.24v0.01"/>
		<path fill="#2F567D" stroke="#FFFFFF" stroke-miterlimit="10" d="M41.346,84.034"/>
	</g>
</g>
</svg>
